<?xml version="1.0" encoding="utf-8"?><svg width="98" height="98" viewBox="0 0 98 98" fill="none" xmlns="http://www.w3.org/2000/svg">
<g clip-path="url(#clip0_858_4056)">
<path d="M79.4192 45.4132C84.6151 45.4132 88.8272 41.2011 88.8272 36.0052C88.8272 30.8093 84.6151 26.5972 79.4192 26.5972C74.2233 26.5972 70.0112 30.8093 70.0112 36.0052C70.0112 41.2011 74.2233 45.4132 79.4192 45.4132Z" fill="#FFC033"/>
<path d="M79.4193 46.7461C78.1011 46.7524 76.7873 46.8969 75.4993 47.1773C80.7521 52.8809 85.1033 60.4465 85.1033 68.4825V73.8921H91.8653C93.4959 73.8818 95.0562 73.2267 96.2056 72.07C97.355 70.9132 98.0001 69.3488 98.0001 67.7181V65.3073C98.0001 62.8682 97.5193 60.4529 96.5853 58.1997C95.6513 55.9465 94.2823 53.8994 92.5567 52.1756C90.831 50.4518 88.7826 49.085 86.5283 48.1534C84.2741 47.2217 81.8584 46.7435 79.4193 46.7461Z" fill="#FFC033"/>
<path d="M18.5809 45.4132C23.7767 45.4132 27.9889 41.2011 27.9889 36.0052C27.9889 30.8093 23.7767 26.5972 18.5809 26.5972C13.385 26.5972 9.17285 30.8093 9.17285 36.0052C9.17285 41.2011 13.385 45.4132 18.5809 45.4132Z" fill="#FFC033"/>
<path d="M12.8772 68.4826C12.8772 60.4466 17.2872 52.8026 22.54 47.1774C21.252 46.897 19.9381 46.7525 18.62 46.7462C16.1776 46.7384 13.7576 47.2128 11.4989 48.1422C9.24014 49.0715 7.18702 50.4375 5.45722 52.1618C3.72742 53.8861 2.35495 55.9349 1.41849 58.1907C0.482029 60.4465 -1.22555e-05 62.8649 2.33692e-10 65.3074L2.33694e-10 67.7182C2.33691e-10 68.529 0.159695 69.3318 0.469968 70.0809C0.78024 70.8299 1.23501 71.5106 1.80832 72.0839C2.38163 72.6572 3.06225 73.1119 3.81131 73.4222C4.56038 73.7325 5.36322 73.8922 6.174 73.8922H12.8772V68.4826Z" fill="#FFC033"/>
<path d="M49 45.2759C45.2824 45.2759 41.6484 44.1735 38.5573 42.1081C35.4662 40.0428 33.0571 37.1072 31.6344 33.6726C30.2118 30.238 29.8395 26.4587 30.5648 22.8125C31.2901 19.1664 33.0802 15.8172 35.709 13.1885C38.3377 10.5597 41.6869 8.76954 45.333 8.04428C48.9792 7.31902 52.7585 7.69125 56.1931 9.1139C59.6277 10.5366 62.5633 12.9457 64.6287 16.0368C66.694 19.1278 67.7964 22.7619 67.7964 26.4795C67.7912 31.463 65.8092 36.241 62.2854 39.7648C58.7615 43.2887 53.9835 45.2707 49 45.2759ZM49 15.5231C46.8331 15.5231 44.7147 16.1657 42.913 17.3696C41.1112 18.5735 39.7069 20.2847 38.8776 22.2867C38.0484 24.2887 37.8314 26.4917 38.2541 28.617C38.6769 30.7423 39.7204 32.6946 41.2527 34.2269C42.785 35.7591 44.7372 36.8026 46.8625 37.2254C48.9879 37.6481 51.1908 37.4312 53.1929 36.6019C55.1949 35.7726 56.906 34.3683 58.1099 32.5666C59.3138 30.7648 59.9564 28.6465 59.9564 26.4795C59.9512 23.5753 58.7952 20.7915 56.7416 18.7379C54.688 16.6843 51.9042 15.5283 49 15.5231Z" fill="#FFC033"/>
<path d="M69.7759 90.3168H28.2239C24.9004 90.3168 21.7128 88.9979 19.3609 86.6497C17.009 84.3015 15.6851 81.1159 15.6799 77.7924V69.3252C15.6903 61.4271 18.8324 53.8554 24.4173 48.2705C30.0021 42.6857 37.5738 39.5436 45.4719 39.5332H52.4887C60.3937 39.5332 67.9754 42.6707 73.5687 48.2567C79.162 53.8427 82.3095 61.4203 82.3199 69.3252V77.7924C82.3147 81.1159 80.9909 84.3015 78.639 86.6497C76.2871 88.9979 73.0994 90.3168 69.7759 90.3168ZM45.4915 47.3732C39.6677 47.3732 34.0821 49.6854 29.9622 53.8016C25.8423 57.9178 23.5251 63.5014 23.5199 69.3252V77.7924C23.5251 79.0332 24.0203 80.2217 24.8977 81.0991C25.775 81.9765 26.9635 82.4716 28.2043 82.4768H69.7759C71.0201 82.4768 72.2136 81.9839 73.0952 81.106C73.9769 80.228 74.4748 79.0366 74.4799 77.7924V69.3252C74.4747 63.5048 72.1603 57.9242 68.0446 53.8085C63.9289 49.6929 58.3484 47.3784 52.5279 47.3732H45.4915Z" fill="#FFC033"/>
</g>
<defs>
<clipPath id="clip0_858_4056">
<rect width="98" height="98" fill="white"/>
</clipPath>
</defs>
</svg>
