<?xml version="1.0" encoding="utf-8"?><svg width="96" height="96" viewBox="0 0 96 96" fill="none" xmlns="http://www.w3.org/2000/svg">
<path d="M95.1384 47.04C95.1384 47.04 95.1384 46.8636 95.1384 46.7656C94.906 34.5834 90.0174 22.9527 81.4767 14.2626C72.9361 5.57251 61.3919 0.482877 49.2156 0.0392H48.6472L47.5692 0C35.0972 0.0183849 23.1296 4.92622 14.2357 13.6698C5.34186 22.4134 0.230855 34.2957 0 46.7656C0 46.8636 0 46.9616 0 47.04C0 47.1184 0 47.4124 0 47.5888C0 47.7652 0 47.9416 0 48.1376C0 48.3336 0 48.314 0 48.412C0.230855 60.8819 5.34186 72.7642 14.2357 81.5078C23.1296 90.2514 35.0972 95.1592 47.5692 95.1776H48.6472H49.2156C61.3986 94.7335 72.9484 89.6384 81.49 80.94C90.0317 72.2416 94.9159 60.601 95.1384 48.412C95.1384 48.314 95.1384 48.216 95.1384 48.1376C95.1384 48.0592 95.1384 47.7652 95.1384 47.5888C95.1384 47.4124 95.1384 47.236 95.1384 47.04ZM48.3924 87.22C44.002 86.4556 39.4548 79.674 36.6324 69.3252C40.2588 69.7079 43.903 69.8977 47.5496 69.8936C51.7748 69.903 55.9967 69.6543 60.1916 69.1488C57.3692 79.5956 52.8024 86.436 48.3924 87.22ZM47.5692 62.0536C43.3469 62.0572 39.1294 61.769 34.9468 61.1912C33.5878 52.1739 33.5878 43.0038 34.9468 33.9864C39.1294 33.4086 43.3469 33.1204 47.5692 33.124C52.3611 33.1234 57.1455 33.5036 61.8772 34.2608C62.5274 38.6737 62.855 43.1282 62.8572 47.5888C62.855 52.0494 62.5274 56.5039 61.8772 60.9168C57.1455 61.674 52.3611 62.0542 47.5692 62.0536ZM26.7736 59.5644C15.8956 56.8008 8.7416 52.0968 7.938 47.5888C8.7416 43.0808 15.8956 38.3768 26.7736 35.5936C25.8589 43.5577 25.8589 51.6003 26.7736 59.5644ZM48.3336 7.9576C52.7436 8.7416 57.33 15.582 60.0936 26.0484C52.2858 25.101 44.3961 25.0353 36.5736 25.8524C39.4548 15.5036 44.002 8.722 48.3924 7.9576H48.3336ZM70.07 36.0444C80.0072 38.8472 86.436 43.316 87.2004 47.5888C86.436 51.8616 80.0072 56.3304 70.07 59.1332C70.4937 55.2997 70.7031 51.4456 70.6972 47.5888C70.7031 43.732 70.4937 39.8779 70.07 36.0444ZM84.8092 33.6336C79.8054 30.7803 74.3907 28.7176 68.7568 27.5184C67.6111 21.6583 65.5473 16.0159 62.6416 10.7996C67.7041 12.8834 72.2842 15.9856 76.0976 19.9137C79.911 23.8417 82.8762 28.5116 84.8092 33.6336ZM34.7704 10.1136C31.666 15.4162 29.4668 21.199 28.2632 27.2244C21.9701 28.3474 15.9087 30.5136 10.3292 33.6336C12.4051 28.1507 15.6647 23.1932 19.8758 19.1142C24.0869 15.0353 29.1458 11.9353 34.692 10.0352L34.7704 10.1136ZM10.3292 61.544C15.8553 64.675 21.8626 66.8674 28.1064 68.0316C29.31 74.057 31.5092 79.8398 34.6136 85.1424C29.0818 83.2325 24.0384 80.1281 19.8414 76.0496C15.6444 71.9712 12.3968 67.0188 10.3292 61.544ZM62.5632 84.378C65.4689 79.1617 67.5327 73.5193 68.6784 67.6592C74.3394 66.4678 79.7811 64.4048 84.8092 61.544C82.8674 66.6734 79.8901 71.348 76.0628 75.2764C72.2355 79.2049 67.6402 82.3031 62.5632 84.378Z" fill="#FF6485"/>
</svg>
