<?xml version="1.0" encoding="utf-8"?><svg width="98" height="98" viewBox="0 0 98 98" fill="none" xmlns="http://www.w3.org/2000/svg">
<path d="M35.574 84.3974H14.21C12.1307 84.3974 10.1366 83.5714 8.66628 82.1011C7.19599 80.6308 6.37 78.6367 6.37 76.5574V26.5578C6.37 24.4785 7.19599 22.4843 8.66628 21.0141C10.1366 19.5438 12.1307 18.7178 14.21 18.7178H83.79C85.8693 18.7178 87.8634 19.5438 89.3337 21.0141C90.804 22.4843 91.63 24.4785 91.63 26.5578V43.2178C91.63 44.2574 91.217 45.2545 90.4818 45.9896C89.7467 46.7248 88.7496 47.1378 87.71 47.1378C86.6703 47.1378 85.6733 46.7248 84.9381 45.9896C84.203 45.2545 83.79 44.2574 83.79 43.2178V26.5578H14.21V76.5574H35.574C36.6136 76.5574 37.6107 76.9704 38.3458 77.7055C39.081 78.4407 39.494 79.4377 39.494 80.4774C39.494 81.517 39.081 82.5141 38.3458 83.2492C37.6107 83.9844 36.6136 84.3974 35.574 84.3974Z" fill="#0086FF"/>
<path d="M46.4324 26.5582H6.37V14.171C6.37 13.1313 6.78299 12.1343 7.51814 11.3991C8.25328 10.664 9.25035 10.251 10.29 10.251H35.77L46.4324 26.5582Z" fill="#0086FF"/>
<path d="M86.2399 91.3754H52.92C50.8407 91.3754 48.8465 90.5494 47.3762 89.0791C45.906 87.6089 45.08 85.6147 45.08 83.5354V58.5846C45.08 56.5053 45.906 54.5112 47.3762 53.0409C48.8465 51.5706 50.8407 50.7446 52.92 50.7446H86.2399C88.3192 50.7446 90.3134 51.5706 91.7837 53.0409C93.2539 54.5112 94.0799 56.5053 94.0799 58.5846V83.5354C94.0799 85.6147 93.2539 87.6089 91.7837 89.0791C90.3134 90.5494 88.3192 91.3754 86.2399 91.3754ZM52.92 58.5846V83.5354H86.2399V58.5846H52.92Z" fill="#0086FF"/>
</svg>
