<?xml version="1.0" encoding="utf-8"?><svg width="120" height="35" viewBox="0 0 120 35" fill="none" xmlns="http://www.w3.org/2000/svg">
<path d="M22.0545 1.49585L10.661 15.9021C9.18174 17.7683 9.16413 20.367 10.5905 22.2681L21.8608 34.9826C25.6997 34.9826 27.9362 30.6746 25.6821 27.5876L17.6168 18.8148L25.5941 8.71642C27.9362 5.78633 25.823 1.49585 22.0545 1.49585Z" fill="#0086FF"/>
<path d="M8.37972 8.30015C9.92726 6.76788 9.93319 4.28875 8.39296 2.76285C6.85274 1.23696 4.34961 1.24213 2.80207 2.7744C1.25453 4.30668 1.2486 6.78581 2.78883 8.3117C4.32905 9.8376 6.83218 9.83243 8.37972 8.30015Z" fill="#0086FF"/>
<path d="M9.53375 15.7975V30.5875C9.53375 33.0292 7.54384 35 5.07847 35H1.62695V15.7975C1.62695 13.6348 3.40554 11.8733 5.58915 11.8733C7.77277 11.8733 9.53375 13.6348 9.53375 15.7975Z" fill="#0086FF"/>
<path d="M46.2501 21.1343L51.9205 28.006C52.1142 28.2327 51.9381 28.5816 51.6387 28.5816H48.1168C48.0111 28.5816 47.9054 28.5292 47.835 28.442L42.5345 21.8842V28.2153C42.5345 28.4072 42.376 28.5641 42.1823 28.5641H39.0653C38.8716 28.5641 38.7131 28.4072 38.7131 28.2153V8.31513C38.7131 8.12328 38.8716 7.96631 39.0653 7.96631H42.1823C42.376 7.96631 42.5345 8.12328 42.5345 8.31513V20.332L47.5356 13.9835C47.6061 13.8962 47.7117 13.8439 47.8174 13.8439H51.4802C51.7796 13.8439 51.9381 14.1927 51.762 14.4195L46.2501 21.1343Z" fill="#102F4F"/>
<path d="M63.6486 15.5881V14.2102C63.6486 14.0184 63.8071 13.8614 64.0008 13.8614H67.1354C67.3291 13.8614 67.4875 14.0184 67.4875 14.2102V28.2328C67.4875 28.4246 67.3291 28.5816 67.1354 28.5816H64.0184C63.8247 28.5816 63.6662 28.4246 63.6662 28.2328V26.855C62.5216 28.2851 60.9015 29.0002 58.8235 29.0002C56.8336 29.0002 55.1431 28.2502 53.7167 26.7677C52.3079 25.2504 51.6035 23.4191 51.6035 21.239C51.6035 19.0763 52.3079 17.245 53.7167 15.7276C55.1431 14.2102 56.8512 13.4603 58.8235 13.4603C60.8839 13.4428 62.504 14.1579 63.6486 15.5881ZM56.5871 24.2214C57.3619 24.9888 58.3481 25.3725 59.5279 25.3725C60.7254 25.3725 61.6939 24.9888 62.4688 24.2214C63.2612 23.4365 63.6662 22.4424 63.6662 21.2215C63.6662 20.0006 63.2612 19.0065 62.4688 18.2565C61.6939 17.4717 60.7078 17.0706 59.5279 17.0706C58.3305 17.0706 57.3619 17.4717 56.5871 18.2565C55.8123 19.0239 55.4248 20.0181 55.4248 21.2215C55.4248 22.4424 55.8123 23.4365 56.5871 24.2214Z" fill="#102F4F"/>
<path d="M81.3287 12.0825C80.6948 12.0825 80.1488 11.8558 79.6734 11.3849C79.2155 10.9314 78.969 10.3733 78.969 9.7454C78.969 9.11753 79.1979 8.55942 79.6734 8.08851C80.1312 7.6176 80.6948 7.39087 81.3287 7.39087C81.9803 7.39087 82.5438 7.6176 83.0016 8.08851C83.4595 8.55942 83.706 9.11753 83.706 9.7454C83.706 10.3733 83.4771 10.9139 83.0016 11.3849C82.5438 11.8558 81.9979 12.0825 81.3287 12.0825ZM82.9136 28.5817H79.7967C79.6029 28.5817 79.4445 28.4247 79.4445 28.2329V14.2103C79.4445 14.0184 79.6029 13.8615 79.7967 13.8615H82.9136C83.1073 13.8615 83.2658 14.0184 83.2658 14.2103V28.2329C83.2658 28.4247 83.1073 28.5817 82.9136 28.5817Z" fill="#102F4F"/>
<path d="M93.7614 13.4428C95.7689 13.4428 97.4594 14.1927 98.8682 15.7101C100.295 17.2275 101.017 19.0588 101.017 21.2215C101.017 23.419 100.312 25.2678 98.8682 26.7503C97.477 28.2502 95.7689 28.9827 93.7614 28.9827C91.6834 28.9827 90.0809 28.2676 88.9539 26.8375V28.2153C88.9539 28.4072 88.7954 28.5641 88.6017 28.5641H85.4848C85.2911 28.5641 85.1326 28.4072 85.1326 28.2153V8.31513C85.1326 8.12328 85.2911 7.96631 85.4848 7.96631H88.6017C88.7954 7.96631 88.9539 8.12328 88.9539 8.31513V15.588C90.0809 14.1579 91.6834 13.4428 93.7614 13.4428ZM90.1161 24.2213C90.891 24.9887 91.8771 25.3724 93.057 25.3724C94.2544 25.3724 95.223 24.9887 95.9978 24.2213C96.7902 23.4365 97.1953 22.4423 97.1953 21.2215C97.1953 20.0006 96.7902 19.0065 95.9978 18.2565C95.223 17.4717 94.2368 17.0705 93.057 17.0705C91.8595 17.0705 90.891 17.4717 90.1161 18.2565C89.3413 19.0239 88.9539 20.018 88.9539 21.2215C88.9539 22.4423 89.3413 23.4365 90.1161 24.2213Z" fill="#102F4F"/>
<path d="M115.21 28.5641H112.216C112.023 28.5641 111.864 28.4071 111.864 28.2153V20.2447C111.864 16.4949 114.928 13.4602 118.714 13.4602H119.648C119.841 13.4602 120 13.6172 120 13.809V16.7914C120 16.9833 119.841 17.1403 119.648 17.1403H118.714C116.989 17.1403 115.58 18.5355 115.58 20.2447V28.2153C115.562 28.4071 115.404 28.5641 115.21 28.5641Z" fill="#102F4F"/>
<path d="M106.282 28.5641H103.271C103.077 28.5641 102.918 28.4071 102.918 28.2153V20.2447C102.918 16.4949 105.983 13.4602 109.769 13.4602H110.702C110.896 13.4602 111.054 13.6172 111.054 13.809V16.7914C111.054 16.9833 110.896 17.1403 110.702 17.1403H109.769C108.043 17.1403 106.634 18.5355 106.634 20.2447V28.2153C106.634 28.4071 106.476 28.5641 106.282 28.5641Z" fill="#102F4F"/>
<path d="M77.1729 28.5467H76.2396C72.4535 28.5467 69.3894 25.5119 69.3894 21.7621V8.31513C69.3894 8.12328 69.5479 7.96631 69.7416 7.96631H72.7529C72.9466 7.96631 73.1051 8.12328 73.1051 8.31513V21.7621C73.1051 23.4714 74.5139 24.8666 76.2396 24.8666H77.1729C77.3666 24.8666 77.5251 25.0236 77.5251 25.2154V28.1979C77.5251 28.3897 77.3666 28.5467 77.1729 28.5467Z" fill="#102F4F"/>
</svg>
