<?xml version="1.0" encoding="utf-8"?><svg width="24" height="31" viewBox="0 0 24 31" fill="none" xmlns="http://www.w3.org/2000/svg">
<path d="M19.1138 1.32495L9.23941 14.0848C7.95742 15.7377 7.94215 18.0394 9.17836 19.7232L18.9459 30.9846C22.273 30.9846 24.2113 27.169 22.2577 24.4348L15.2678 16.6646L22.1814 7.72031C24.2113 5.12509 22.3798 1.32495 19.1138 1.32495Z" fill="#0086FF"/>
<path d="M7.26242 7.35168C8.60363 5.99453 8.60876 3.79872 7.2739 2.44722C5.93904 1.09571 3.76966 1.10029 2.42846 2.45745C1.08726 3.8146 1.08212 6.01041 2.41698 7.36191C3.75185 8.71342 5.92122 8.70884 7.26242 7.35168Z" fill="#0086FF"/>
<path d="M8.26265 13.9921V27.0918C8.26265 29.2545 6.53806 31.0001 4.40141 31.0001H1.4101V13.9921C1.4101 12.0766 2.95154 10.5164 4.844 10.5164C6.73647 10.5164 8.26265 12.0766 8.26265 13.9921Z" fill="#0086FF"/>
</svg>
