<svg width="19" height="19" viewBox="0 0 19 19" fill="none" xmlns="http://www.w3.org/2000/svg">
<rect width="19" height="19" rx="2" fill="#0086FF"/>
<path d="M4.73387 10.2136C4.35871 9.80826 3.72602 9.78382 3.32071 10.159C2.91541 10.5341 2.89097 11.1668 3.26613 11.5721L4.73387 10.2136ZM7.27273 14.4286L6.53885 15.1079C6.72812 15.3123 6.99411 15.4286 7.27273 15.4286C7.55135 15.4286 7.81734 15.3123 8.0066 15.1079L7.27273 14.4286ZM16.7339 5.67929C17.109 5.27398 17.0846 4.64129 16.6793 4.26613C16.274 3.89097 15.6413 3.91541 15.2661 4.32071L16.7339 5.67929ZM3.26613 11.5721L6.53885 15.1079L8.0066 13.7493L4.73387 10.2136L3.26613 11.5721ZM8.0066 15.1079L16.7339 5.67929L15.2661 4.32071L6.53885 13.7493L8.0066 15.1079Z" fill="white"/>
</svg>
