<svg width="16" height="13" viewBox="0 0 16 13" fill="none" xmlns="http://www.w3.org/2000/svg">
<path d="M1.73387 7.19571C1.35871 6.79041 0.72602 6.76597 0.320713 7.14113C-0.0845938 7.51629 -0.109033 8.14898 0.266127 8.55429L1.73387 7.19571ZM4.81818 12L4.08431 12.6793C4.27357 12.8838 4.53956 13 4.81818 13C5.0968 13 5.36279 12.8838 5.55205 12.6793L4.81818 12ZM15.7339 1.67929C16.109 1.27398 16.0846 0.641287 15.6793 0.266127C15.274 -0.109033 14.6413 -0.0845938 14.2661 0.320713L15.7339 1.67929ZM0.266127 8.55429L4.08431 12.6793L5.55205 11.3207L1.73387 7.19571L0.266127 8.55429ZM5.55205 12.6793L15.7339 1.67929L14.2661 0.320713L4.08431 11.3207L5.55205 12.6793Z" fill="#0086FF"/>
</svg>
