<svg width="26" height="22" viewBox="0 0 26 22" fill="none" xmlns="http://www.w3.org/2000/svg">
<path d="M3.07603 11.9397C2.47416 11.2895 1.45914 11.2503 0.808905 11.8522C0.158674 12.454 0.119467 13.4691 0.721334 14.1193L3.07603 11.9397ZM8.02417 19.6472L6.84682 20.737C7.15046 21.0651 7.57718 21.2515 8.02417 21.2515C8.47116 21.2515 8.89788 21.0651 9.20152 20.737L8.02417 19.6472ZM25.5362 3.08978C26.138 2.43955 26.0988 1.42452 25.4486 0.822652C24.7983 0.220785 23.7833 0.259992 23.1815 0.910224L25.5362 3.08978ZM0.721334 14.1193L6.84682 20.737L9.20152 18.5575L3.07603 11.9397L0.721334 14.1193ZM9.20152 20.737L25.5362 3.08978L23.1815 0.910224L6.84682 18.5575L9.20152 20.737Z" fill="#0086FF"/>
</svg>
