<svg width="11" height="13" viewBox="0 0 11 13" fill="none" xmlns="http://www.w3.org/2000/svg">
<circle cx="5.14583" cy="6.22921" r="5.14583" fill="#0086FF"/>
<path d="M5.16133 4.034C4.95911 4.034 4.79156 3.97333 4.65867 3.852C4.53156 3.73067 4.468 3.57756 4.468 3.39267C4.468 3.20778 4.53156 3.05756 4.65867 2.942C4.79156 2.82067 4.95911 2.76 5.16133 2.76C5.36356 2.76 5.52822 2.82067 5.65533 2.942C5.78822 3.05756 5.85467 3.20778 5.85467 3.39267C5.85467 3.57756 5.78822 3.73067 5.65533 3.852C5.52822 3.97333 5.36356 4.034 5.16133 4.034ZM4.60667 9V4.70133H5.716V9H4.60667Z" fill="white"/>
</svg>
