<svg width="20" height="35" viewBox="0 0 20 35" fill="none" xmlns="http://www.w3.org/2000/svg">
<g clip-path="url(#clip0_1186_3608)">
<path d="M3.12342 6.92322C2.96145 6.92322 2.80611 6.85789 2.69157 6.7416C2.57704 6.6253 2.5127 6.46758 2.5127 6.30312C2.51377 5.24992 2.92626 4.24016 3.65966 3.49538C4.39306 2.75059 5.38748 2.3316 6.42475 2.33032C6.58673 2.33032 6.74207 2.39565 6.8566 2.51195C6.97114 2.62824 7.03548 2.78596 7.03548 2.95043C7.03548 3.11489 6.97114 3.27261 6.8566 3.3889C6.74207 3.5052 6.58673 3.57053 6.42475 3.57053C5.71132 3.57144 5.02737 3.85965 4.52296 4.37193C4.01855 4.88422 3.73487 5.57873 3.73415 6.30312C3.73415 6.46758 3.66981 6.6253 3.55527 6.7416C3.44074 6.85789 3.2854 6.92322 3.12342 6.92322Z" fill="#0086FF"/>
<path d="M17.5864 17.9086C17.3894 17.9079 17.193 17.931 17.0014 17.9775C16.84 18.0191 16.6835 18.0783 16.5346 18.1539V17.5338C16.5338 16.8838 16.2792 16.2607 15.8266 15.8011C15.374 15.3415 14.7603 15.083 14.1201 15.0823C13.9232 15.0816 13.7268 15.1047 13.5352 15.1512C13.3566 15.1951 13.1837 15.2603 13.0202 15.3455C12.9088 14.7915 12.6125 14.2936 12.1814 13.9357C11.7503 13.5778 11.2108 13.3819 10.6539 13.3812C10.4569 13.3804 10.2606 13.4036 10.069 13.4501C9.9074 13.4898 9.75044 13.5468 9.60075 13.6202V6.97273C9.60004 6.3229 9.34552 5.69989 8.89304 5.24032C8.44055 4.78076 7.82702 4.52217 7.18702 4.52126C6.99004 4.52056 6.79367 4.54369 6.60208 4.59016C5.52516 4.85404 4.76989 5.85792 4.76989 7.03061V18.0733C4.4076 17.5992 3.90035 17.2609 3.32797 17.1116C2.75558 16.9623 2.15056 17.0105 1.6081 17.2486C1.06564 17.4867 0.61653 17.9011 0.331453 18.4267C0.0463748 18.9523 -0.0584931 19.5592 0.0333508 20.152C0.915514 25.3946 1.12384 26.5956 1.18695 26.9235C2.13086 31.6776 6.01374 35.0014 10.6288 35.0014C10.9335 35.0014 11.2429 34.9869 11.549 34.958C16.2882 34.5074 20.0021 30.2631 20.0021 25.2954V20.3587C20.0012 19.7087 19.7464 19.0856 19.2934 18.6262C18.8405 18.1669 18.2265 17.9088 17.5864 17.9086ZM18.8248 25.2954C18.8248 29.6086 15.6694 33.3664 11.4404 33.7701C11.169 33.7963 10.8987 33.8092 10.6295 33.8087C6.51183 33.8087 3.15417 30.7909 2.33987 26.6886C2.31544 26.6135 1.19509 19.9646 1.19509 19.9646C1.16459 19.7689 1.17245 19.569 1.21823 19.3763C1.26402 19.1837 1.34682 19.0022 1.46189 18.8421C1.57695 18.6821 1.72202 18.5467 1.88876 18.4437C2.0555 18.3407 2.24063 18.2722 2.43352 18.2421C2.51074 18.2297 2.58878 18.2235 2.66695 18.2235C3.01993 18.2246 3.36103 18.3531 3.62938 18.5859C3.89773 18.8188 4.07587 19.1408 4.13202 19.4947L4.74275 23.4847C4.76659 23.6375 4.84626 23.7756 4.96589 23.8714C5.08551 23.9673 5.23631 24.0139 5.38823 24.0019C5.54016 23.9899 5.68205 23.9202 5.78565 23.8067C5.88925 23.6933 5.94695 23.5443 5.94724 23.3896V8.35349V7.03336C5.94724 6.44633 6.31435 5.89168 6.8769 5.75388C6.97771 5.72864 7.08116 5.71591 7.18498 5.71599C7.34776 5.71581 7.50898 5.74819 7.65943 5.81129C7.80987 5.8744 7.9466 5.96698 8.0618 6.08375C8.17699 6.20052 8.2684 6.3392 8.3308 6.49185C8.39319 6.6445 8.42535 6.80814 8.42544 6.97342V19.2253C8.43019 19.3554 8.48442 19.4785 8.57673 19.5688C8.66905 19.6592 8.79226 19.7096 8.92047 19.7096C9.04868 19.7096 9.17189 19.6592 9.26421 19.5688C9.35652 19.4785 9.41076 19.3554 9.4155 19.2253V15.896C9.4155 15.309 9.7833 14.7543 10.3458 14.6165C10.4466 14.5913 10.5501 14.5786 10.6539 14.5786C10.9823 14.5788 11.2972 14.7114 11.5294 14.9471C11.7616 15.1829 11.8922 15.5026 11.8923 15.8361V20.2312C11.8899 20.2988 11.9009 20.3662 11.9246 20.4293C11.9484 20.4925 11.9845 20.5502 12.0307 20.5988C12.0769 20.6475 12.1323 20.6863 12.1936 20.7127C12.2549 20.7392 12.3208 20.7528 12.3874 20.7528C12.454 20.7528 12.5199 20.7392 12.5812 20.7127C12.6425 20.6863 12.6979 20.6475 12.7441 20.5988C12.7903 20.5502 12.8264 20.4925 12.8501 20.4293C12.8739 20.3662 12.8849 20.2988 12.8824 20.2312V17.5958C12.8824 17.0081 13.2495 16.4534 13.8121 16.3156C13.9132 16.2909 14.0168 16.2784 14.1208 16.2784C14.4489 16.2784 14.7635 16.4106 14.9956 16.646C15.2276 16.8814 15.3582 17.2007 15.3586 17.5338V21.2358C15.3586 21.3692 15.4108 21.4971 15.5037 21.5914C15.5966 21.6858 15.7226 21.7388 15.8539 21.7388C15.9853 21.7388 16.1113 21.6858 16.2042 21.5914C16.2971 21.4971 16.3493 21.3692 16.3493 21.2358V20.4228C16.3493 19.835 16.7164 19.2804 17.279 19.1426C17.3798 19.1177 17.4832 19.105 17.5871 19.1047C17.9154 19.1049 18.2303 19.2374 18.4625 19.4732C18.6948 19.709 18.8253 20.0287 18.8255 20.3621L18.8248 25.2954Z" fill="#0086FF"/>
<path d="M0.738868 6.90037H0.733439C0.653236 6.89974 0.573941 6.88307 0.500081 6.85133C0.426222 6.81958 0.359245 6.77337 0.302975 6.71534C0.246704 6.65731 0.202242 6.58859 0.172127 6.51312C0.142012 6.43764 0.126834 6.35688 0.12746 6.27544C0.142296 4.60729 0.804823 3.01245 1.97111 1.83743C3.13739 0.662403 4.71321 0.00211006 6.35621 0H6.40643C6.5684 0.000639573 6.72349 0.066585 6.83758 0.183329C6.95167 0.300073 7.01541 0.458053 7.01478 0.622515C7.01415 0.786976 6.9492 0.944448 6.83422 1.06029C6.71924 1.17613 6.56365 1.24085 6.40168 1.24021H6.39693C5.06908 1.23103 3.79188 1.75703 2.84552 2.7028C1.89915 3.64858 1.36093 4.93689 1.34892 6.28509C1.34766 6.4486 1.28286 6.60498 1.16861 6.72021C1.05436 6.83544 0.899906 6.90019 0.738868 6.90037Z" fill="#0086FF"/>
</g>
<defs>
<clipPath id="clip0_1186_3608">
<rect width="20" height="35" fill="white"/>
</clipPath>
</defs>
</svg>
