<?xml version="1.0" encoding="utf-8"?><svg width="50" height="50" viewBox="0 0 50 50" fill="none" xmlns="http://www.w3.org/2000/svg">
<path d="M28.002 16.1371H22.5263C22.3896 16.1355 22.254 16.1612 22.1275 16.2128C22.0009 16.2643 21.8859 16.3407 21.7893 16.4373C21.6926 16.5339 21.6163 16.6489 21.5647 16.7755C21.5132 16.9021 21.4875 17.0377 21.4891 17.1744V22.4691C21.4891 22.741 21.5971 23.0017 21.7894 23.194C21.9816 23.3863 22.2424 23.4943 22.5143 23.4943H28.002C28.275 23.4943 28.537 23.3867 28.7312 23.1947C28.9254 23.0028 29.036 22.7421 29.0392 22.4691V17.1744C29.0361 16.9002 28.9258 16.6382 28.7319 16.4444C28.5381 16.2505 28.2761 16.1402 28.002 16.1371ZM26.9768 18.2116V21.4198H23.5515V18.2116H26.9768Z" fill="#FF6485"/>
<path d="M38.495 5.6687H32.8987C32.6417 5.69296 32.4034 5.81321 32.2312 6.00549C32.0591 6.19776 31.9658 6.44788 31.97 6.70592V11.9886C31.97 12.2637 32.0793 12.5276 32.2738 12.7221C32.4683 12.9166 32.7321 13.0259 33.0072 13.0259H38.495C38.7691 13.0227 39.0311 12.9125 39.2249 12.7186C39.4188 12.5248 39.529 12.2627 39.5322 11.9886V6.70592C39.5328 6.56949 39.5064 6.43429 39.4547 6.30804C39.403 6.18179 39.3268 6.067 39.2307 5.97022C39.0337 5.77818 38.77 5.67008 38.495 5.6687ZM37.4577 7.74318V10.9634H34.0324V7.74318H37.4577Z" fill="#FF6485"/>
<path d="M48.9628 47.8698H44.8017V1.03726C44.7986 0.763139 44.6883 0.50111 44.4945 0.307265C44.3006 0.11342 44.0386 0.00313311 43.7645 0H17.146C16.888 0.0241061 16.6483 0.143931 16.4742 0.335901C16.3001 0.527871 16.2042 0.778095 16.2053 1.03726V24.8817L6.04996 27.6678C5.83319 27.7279 5.64187 27.8569 5.50481 28.0353C5.36775 28.2137 5.29242 28.4318 5.29015 28.6568V47.8698H0.984389C0.709296 47.8842 0.451178 48.0073 0.266836 48.212C0.0824942 48.4167 -0.012974 48.6863 0.00142044 48.9614C0.0158149 49.2364 0.13888 49.4946 0.343579 49.6789C0.548277 49.8633 0.81784 49.9587 1.09293 49.9443H48.9628C49.2379 49.9443 49.5017 49.835 49.6962 49.6405C49.8907 49.446 50 49.1822 50 48.9071C50 48.632 49.8907 48.3682 49.6962 48.1736C49.5017 47.9791 49.2379 47.8698 48.9628 47.8698ZM33.5972 39.4272V47.8698H27.3616V39.4272H33.5972ZM35.6596 39.4272H36.7089C36.983 39.4241 37.245 39.3138 37.4388 39.1199C37.6327 38.9261 37.743 38.6641 37.7461 38.39C37.7461 38.1149 37.6368 37.851 37.4423 37.6565C37.2478 37.462 36.984 37.3527 36.7089 37.3527H24.1655C23.8914 37.3683 23.6343 37.4907 23.4495 37.6936C23.2646 37.8965 23.1666 38.1638 23.1765 38.4382C23.1979 38.7101 23.322 38.9637 23.5237 39.1473C23.7253 39.331 23.9893 39.4311 24.262 39.4272H25.2992V47.8698H18.2436V2.0383H42.7273V47.8698H35.6596V39.4272ZM16.1691 27.0406V47.894H7.31638V29.4528L16.1691 27.0406Z" fill="#FF6485"/>
<path d="M38.4948 16.1377H33.0071C32.732 16.1377 32.4682 16.247 32.2737 16.4415C32.0791 16.636 31.9698 16.8999 31.9698 17.175V22.4697C31.9718 22.7411 32.0801 23.0009 32.2714 23.1933C32.4683 23.3854 32.732 23.4935 33.0071 23.4949H38.4948C38.7678 23.4949 39.0298 23.3873 39.224 23.1953C39.4182 23.0034 39.5289 22.7427 39.532 22.4697V17.175C39.532 16.8999 39.4228 16.636 39.2282 16.4415C39.0337 16.247 38.7699 16.1377 38.4948 16.1377ZM37.4576 18.2122V21.4204H34.0323V18.2122H37.4576Z" fill="#FF6485"/>
<path d="M28.002 26.4496H22.4057C22.1509 26.4737 21.9143 26.5923 21.7424 26.782C21.5706 26.9717 21.4759 27.2189 21.4771 27.4748V32.7575C21.477 33.0337 21.5859 33.2988 21.7801 33.4953C21.9743 33.6917 22.2381 33.8036 22.5143 33.8068H28.002C28.2762 33.8037 28.5381 33.6934 28.732 33.4996C28.9258 33.3057 29.0361 33.0437 29.0393 32.7696V27.4748C29.033 27.2028 28.9214 26.9439 28.7279 26.7526C28.5343 26.5613 28.2741 26.4527 28.002 26.4496ZM26.9648 28.5241V31.7444H23.5395V28.5241H26.9648Z" fill="#FF6485"/>
<path d="M28.0002 5.6687H22.4039C22.147 5.69296 21.9087 5.81321 21.7365 6.00549C21.5644 6.19776 21.4711 6.44788 21.4752 6.70592V11.9886C21.4752 12.2637 21.5845 12.5276 21.779 12.7221C21.9736 12.9166 22.2374 13.0259 22.5125 13.0259H28.0002C28.2743 13.0227 28.5363 12.9125 28.7302 12.7186C28.924 12.5248 29.0343 12.2627 29.0374 11.9886V6.70592C29.0343 6.4318 28.924 6.16981 28.7302 5.97597C28.5363 5.78212 28.2743 5.67183 28.0002 5.6687ZM26.963 7.74318V10.9634H23.5376V7.74318H26.963Z" fill="#FF6485"/>
<path d="M38.4948 26.4496H32.8985C32.6437 26.4737 32.4071 26.5923 32.2352 26.782C32.0634 26.9717 31.9687 27.2189 31.9699 27.4748V32.7575C31.9698 33.0337 32.0787 33.2988 32.2729 33.4953C32.4671 33.6917 32.7309 33.8036 33.0071 33.8068H38.4948C38.6294 33.8072 38.7627 33.7807 38.887 33.7289C39.0112 33.6771 39.1239 33.6011 39.2185 33.5053C39.3174 33.4099 39.3961 33.2957 39.45 33.1693C39.5038 33.0429 39.5317 32.907 39.5321 32.7696V27.4748C39.5258 27.2028 39.4141 26.9439 39.2206 26.7526C39.0271 26.5613 38.7669 26.4527 38.4948 26.4496ZM37.4576 28.5241V31.7444H34.0323V28.5241H37.4576Z" fill="#FF6485"/>
</svg>
