<?xml version="1.0" encoding="utf-8"?><svg width="40" height="43" viewBox="0 0 40 43" fill="none" xmlns="http://www.w3.org/2000/svg">
<path d="M21.4046 17.9983C22.0779 17.455 22.6198 16.7666 22.99 15.9846C23.3601 15.2025 23.5489 14.347 23.5421 13.4818C23.4754 11.9768 22.8305 10.5555 21.7419 9.51409C20.6532 8.47268 19.2048 7.89142 17.6983 7.89142C16.1917 7.89142 14.7433 8.47268 13.6547 9.51409C12.566 10.5555 11.9212 11.9768 11.8544 13.4818C11.8491 14.3479 12.0396 15.2041 12.4118 15.9862C12.7839 16.7683 13.328 17.4561 14.0035 17.9983C12.2361 18.7337 10.7252 19.9744 9.66002 21.565C8.59488 23.1555 8.02297 25.0251 8.01599 26.9393C8.01863 27.2136 8.12546 27.4765 8.3148 27.6748C8.41168 27.7706 8.5265 27.8463 8.65272 27.8976C8.77894 27.9489 8.91406 27.9747 9.05029 27.9736H26.3577C26.4921 27.9739 26.6253 27.9476 26.7495 27.8963C26.8737 27.845 26.9866 27.7698 27.0818 27.6748C27.2784 27.4803 27.3899 27.2159 27.392 26.9393C27.3821 25.0258 26.809 23.1575 25.7442 21.5675C24.6794 19.9775 23.1702 18.7362 21.4046 17.9983ZM15.0378 16.148C14.4322 15.5216 14.0624 14.7048 13.9911 13.8365C13.9198 12.9682 14.1514 12.102 14.6467 11.3852C15.142 10.6685 15.8703 10.1454 16.7077 9.90493C17.5451 9.66449 18.4399 9.72157 19.24 10.0664C20.0401 10.4113 20.696 11.0226 21.0962 11.7965C21.4964 12.5704 21.6162 13.4591 21.4351 14.3113C21.2541 15.1635 20.7834 15.9267 20.1032 16.4711C19.423 17.0155 18.5752 17.3074 17.704 17.2973C17.2054 17.2934 16.7126 17.1897 16.2547 16.9923C15.7968 16.7949 15.383 16.5079 15.0378 16.148ZM17.704 19.3314C19.5422 19.3334 21.3177 19.9999 22.7032 21.208C24.0887 22.416 24.9907 24.0842 25.243 25.905H10.1651C10.4127 24.0823 11.3134 22.4112 12.6999 21.2023C14.0864 19.9933 15.8645 19.3286 17.704 19.3314Z" fill="#0086FF"/>
<path d="M39.7012 40.4197L30.289 31.0075C30.5188 30.7776 30.7716 30.5707 30.99 30.3294C34.2482 26.9167 35.7153 22.5443 35.7015 17.826C35.6877 13.1078 33.808 8.57804 30.53 5.18446C27.2519 1.79088 23.1779 0.190153 18.463 0.0130164C13.7481 -0.164121 9.34485 1.47179 5.82142 4.60984C2.298 7.74789 0.443018 11.3983 0.0752641 16.1022C-0.292489 20.8061 0.654536 25.6547 3.64746 29.3022C6.64039 32.9497 10.9282 35.2981 15.6134 35.8559C20.2985 36.4136 25.0179 35.1375 28.7835 32.2946L38.2991 41.8217C38.4867 42.0047 38.7381 42.1077 39.0001 42.109C39.1301 42.1096 39.259 42.0845 39.3793 42.0352C39.4996 41.9859 39.609 41.9134 39.7012 41.8217C39.7965 41.7317 39.8722 41.623 39.9236 41.5024C39.975 41.3817 40.001 41.2518 40 41.1207C39.9997 40.9898 39.9731 40.8603 39.9218 40.7399C39.8704 40.6194 39.7954 40.5105 39.7012 40.4197ZM33.6102 18.136C33.6125 21.2351 32.6955 24.2651 30.9751 26.8428C29.2548 29.4205 26.8086 31.43 23.9459 32.617C21.0832 33.804 17.9327 34.1152 14.8931 33.5111C11.8535 32.9071 9.06139 31.415 6.87004 29.2237C4.67869 27.0323 3.18661 24.2402 2.58258 21.2006C1.97854 18.161 2.2897 15.0105 3.4767 12.1478C4.6637 9.28514 6.67319 6.83889 9.25089 5.11857C11.8286 3.39826 14.8586 2.48121 17.9577 2.48349C20.0153 2.47589 22.0542 2.87555 23.9566 3.65948C25.8591 4.4434 27.5877 5.59607 29.0427 7.05106C30.4976 8.50605 31.6503 10.2346 32.4342 12.1371C33.2182 14.0396 33.6178 16.0784 33.6102 18.136Z" fill="#0086FF"/>
</svg>
